<svg width="249" height="36" viewBox="0 0 249 36" fill="none" xmlns="http://www.w3.org/2000/svg">
<g clip-path="url(#clip0_1908_781)">
<path d="M17.9986 5.53472L35.5997 0.349121L30.464 18.0001L35.5997 35.6012L17.9986 30.4655L0.347656 35.6012L5.53325 18.0001L0.347656 0.349121L17.9986 5.53472Z" fill="white"/>
</g>
<path d="M52 32V4H63.76C65.4933 4 67.0133 4.30667 68.32 4.92C69.6533 5.50667 70.68 6.36 71.4 7.48C72.1467 8.6 72.52 9.93333 72.52 11.48V11.92C72.52 13.68 72.0933 15.0933 71.24 16.16C70.4133 17.2 69.4 17.9333 68.2 18.36V19C69.2133 19.0533 70.0267 19.4 70.64 20.04C71.2533 20.6533 71.56 21.5467 71.56 22.72V32H67.2V23.32C67.2 22.6 67.0133 22.0267 66.64 21.6C66.2667 21.1733 65.6667 20.96 64.84 20.96H56.32V32H52ZM56.32 17.04H63.28C64.8267 17.04 66.0267 16.6533 66.88 15.88C67.7333 15.08 68.16 14 68.16 12.64V12.32C68.16 10.96 67.7333 9.89333 66.88 9.12C66.0533 8.32 64.8533 7.92 63.28 7.92H56.32V17.04Z" fill="white"/>
<path d="M83.5134 32.56C82.1001 32.56 80.8334 32.32 79.7134 31.84C78.6201 31.36 77.7401 30.6533 77.0734 29.72C76.4334 28.7867 76.1134 27.6533 76.1134 26.32C76.1134 24.96 76.4334 23.84 77.0734 22.96C77.7401 22.0533 78.6334 21.3733 79.7534 20.92C80.9001 20.4667 82.1934 20.24 83.6334 20.24H89.6334V18.96C89.6334 17.8133 89.2868 16.8933 88.5934 16.2C87.9001 15.5067 86.8334 15.16 85.3934 15.16C83.9801 15.16 82.9001 15.4933 82.1534 16.16C81.4068 16.8267 80.9134 17.6933 80.6734 18.76L76.8334 17.52C77.1534 16.4533 77.6601 15.4933 78.3534 14.64C79.0734 13.76 80.0201 13.0533 81.1934 12.52C82.3668 11.9867 83.7801 11.72 85.4334 11.72C87.9934 11.72 90.0068 12.3733 91.4734 13.68C92.9401 14.9867 93.6734 16.84 93.6734 19.24V27.36C93.6734 28.16 94.0468 28.56 94.7934 28.56H96.4734V32H93.3934C92.4601 32 91.7001 31.76 91.1134 31.28C90.5268 30.8 90.2334 30.1467 90.2334 29.32V29.2H89.6334C89.4201 29.6 89.1001 30.0667 88.6734 30.6C88.2468 31.1333 87.6201 31.6 86.7934 32C85.9668 32.3733 84.8734 32.56 83.5134 32.56ZM84.1134 29.16C85.7668 29.16 87.1001 28.6933 88.1134 27.76C89.1268 26.8 89.6334 25.4933 89.6334 23.84V23.44H83.8734C82.7801 23.44 81.9001 23.68 81.2334 24.16C80.5668 24.6133 80.2334 25.2933 80.2334 26.2C80.2334 27.1067 80.5801 27.8267 81.2734 28.36C81.9668 28.8933 82.9134 29.16 84.1134 29.16Z" fill="white"/>
<path d="M102.672 32V15.76H97.1522V12.28H102.672V7.96C102.672 6.76 103.032 5.8 103.752 5.08C104.472 4.36 105.432 4 106.632 4H111.712V7.48H107.952C107.179 7.48 106.792 7.88 106.792 8.68V12.28H112.472V15.76H106.792V32H102.672Z" fill="white"/>
<path d="M122.459 32.56C121.045 32.56 119.779 32.32 118.659 31.84C117.565 31.36 116.685 30.6533 116.019 29.72C115.379 28.7867 115.059 27.6533 115.059 26.32C115.059 24.96 115.379 23.84 116.019 22.96C116.685 22.0533 117.579 21.3733 118.699 20.92C119.845 20.4667 121.139 20.24 122.579 20.24H128.579V18.96C128.579 17.8133 128.232 16.8933 127.539 16.2C126.845 15.5067 125.779 15.16 124.339 15.16C122.925 15.16 121.845 15.4933 121.099 16.16C120.352 16.8267 119.859 17.6933 119.619 18.76L115.779 17.52C116.099 16.4533 116.605 15.4933 117.299 14.64C118.019 13.76 118.965 13.0533 120.139 12.52C121.312 11.9867 122.725 11.72 124.379 11.72C126.939 11.72 128.952 12.3733 130.419 13.68C131.885 14.9867 132.619 16.84 132.619 19.24V27.36C132.619 28.16 132.992 28.56 133.739 28.56H135.419V32H132.339C131.405 32 130.645 31.76 130.059 31.28C129.472 30.8 129.179 30.1467 129.179 29.32V29.2H128.579C128.365 29.6 128.045 30.0667 127.619 30.6C127.192 31.1333 126.565 31.6 125.739 32C124.912 32.3733 123.819 32.56 122.459 32.56ZM123.059 29.16C124.712 29.16 126.045 28.6933 127.059 27.76C128.072 26.8 128.579 25.4933 128.579 23.84V23.44H122.819C121.725 23.44 120.845 23.68 120.179 24.16C119.512 24.6133 119.179 25.2933 119.179 26.2C119.179 27.1067 119.525 27.8267 120.219 28.36C120.912 28.8933 121.859 29.16 123.059 29.16Z" fill="white"/>
<path d="M147.996 32.56C145.996 32.56 144.249 32.1467 142.756 31.32C141.263 30.4667 140.089 29.28 139.236 27.76C138.409 26.2133 137.996 24.4267 137.996 22.4V21.92C137.996 19.8667 138.409 18.08 139.236 16.56C140.063 15.0133 141.209 13.8267 142.676 13C144.169 12.1467 145.889 11.72 147.836 11.72C149.729 11.72 151.383 12.1467 152.796 13C154.236 13.8267 155.356 14.9867 156.156 16.48C156.956 17.9733 157.356 19.72 157.356 21.72V23.28H142.196C142.249 25.0133 142.823 26.4 143.916 27.44C145.036 28.4533 146.423 28.96 148.076 28.96C149.623 28.96 150.783 28.6133 151.556 27.92C152.356 27.2267 152.969 26.4267 153.396 25.52L156.796 27.28C156.423 28.0267 155.876 28.8133 155.156 29.64C154.463 30.4667 153.543 31.16 152.396 31.72C151.249 32.28 149.783 32.56 147.996 32.56ZM142.236 20.12H153.156C153.049 18.6267 152.516 17.4667 151.556 16.64C150.596 15.7867 149.343 15.36 147.796 15.36C146.249 15.36 144.983 15.7867 143.996 16.64C143.036 17.4667 142.449 18.6267 142.236 20.12Z" fill="white"/>
<path d="M162.315 32V4H166.435V32H162.315Z" fill="white"/>
<path d="M172.55 32V4H176.67V32H172.55Z" fill="white"/>
<path d="M190.944 32.56C189.317 32.56 187.811 32.16 186.424 31.36C185.037 30.56 183.917 29.4133 183.064 27.92C182.237 26.4 181.824 24.5733 181.824 22.44V21.84C181.824 19.7333 182.237 17.92 183.064 16.4C183.891 14.88 184.997 13.72 186.384 12.92C187.771 12.12 189.291 11.72 190.944 11.72C192.224 11.72 193.291 11.88 194.144 12.2C195.024 12.52 195.744 12.9333 196.304 13.44C196.864 13.92 197.291 14.4267 197.584 14.96H198.224V4H202.344V32H198.304V29.2H197.664C197.157 30.0533 196.384 30.8267 195.344 31.52C194.331 32.2133 192.864 32.56 190.944 32.56ZM192.104 28.96C193.891 28.96 195.357 28.3867 196.504 27.24C197.677 26.0933 198.264 24.4533 198.264 22.32V21.96C198.264 19.8533 197.691 18.2267 196.544 17.08C195.397 15.9333 193.917 15.36 192.104 15.36C190.344 15.36 188.877 15.9333 187.704 17.08C186.557 18.2267 185.984 19.8533 185.984 21.96V22.32C185.984 24.4533 186.557 26.0933 187.704 27.24C188.877 28.3867 190.344 28.96 192.104 28.96Z" fill="white"/>
<path d="M217.449 32.56C215.449 32.56 213.702 32.1467 212.209 31.32C210.716 30.4667 209.542 29.28 208.689 27.76C207.862 26.2133 207.449 24.4267 207.449 22.4V21.92C207.449 19.8667 207.862 18.08 208.689 16.56C209.516 15.0133 210.662 13.8267 212.129 13C213.622 12.1467 215.342 11.72 217.289 11.72C219.182 11.72 220.836 12.1467 222.249 13C223.689 13.8267 224.809 14.9867 225.609 16.48C226.409 17.9733 226.809 19.72 226.809 21.72V23.28H211.649C211.702 25.0133 212.276 26.4 213.369 27.44C214.489 28.4533 215.876 28.96 217.529 28.96C219.076 28.96 220.236 28.6133 221.009 27.92C221.809 27.2267 222.422 26.4267 222.849 25.52L226.249 27.28C225.876 28.0267 225.329 28.8133 224.609 29.64C223.916 30.4667 222.996 31.16 221.849 31.72C220.702 32.28 219.236 32.56 217.449 32.56ZM211.689 20.12H222.609C222.502 18.6267 221.969 17.4667 221.009 16.64C220.049 15.7867 218.796 15.36 217.249 15.36C215.702 15.36 214.436 15.7867 213.449 16.64C212.489 17.4667 211.902 18.6267 211.689 20.12Z" fill="white"/>
<path d="M235.625 32L228.985 12.28H233.345L238.585 28.96H239.225L244.465 12.28H248.825L242.185 32H235.625Z" fill="white"/>
<defs>
<clipPath id="clip0_1908_781">
<rect width="36" height="36" fill="white"/>
</clipPath>
</defs>
</svg>
