<svg width="38" height="42" viewBox="0 0 38 42" fill="none" xmlns="http://www.w3.org/2000/svg">
<path d="M0.517578 0L3.88351 37.7874L18.9966 42L34.1495 37.7727L37.5176 0H0.517578ZM30.5231 8.6583L29.4011 21.2457L29.4053 21.315L29.4011 21.4704L28.6027 30.2694L28.5166 31.0527L19.0176 33.6777L19.0092 33.6861L9.52911 31.0443L8.88617 23.7678H13.5338L13.8636 27.468L19.0176 28.8645L24.1883 27.4491L24.7346 21.4242H13.9267L13.8342 20.4057L13.622 18.0201L13.5128 16.7391H25.1485L25.5729 12.0519H7.84404L7.75159 11.0334L7.54148 8.6457L7.43013 7.3647H30.6344L30.5231 8.6583Z" fill="#231F20"/>
</svg>
