<svg width="43" height="42" viewBox="0 0 43 42" fill="none" xmlns="http://www.w3.org/2000/svg">
<path fill-rule="evenodd" clip-rule="evenodd" d="M25.248 0.0820312C24.9444 0.0820312 24.6625 0.147131 24.4021 0.234071C24.9553 0.602831 25.2589 1.09087 25.411 1.64401C25.4215 1.71961 25.4433 1.77421 25.4542 1.84981C25.4652 1.91491 25.4757 1.98001 25.4757 2.04511C25.5193 2.99977 25.2266 3.11905 25.0204 3.68311C24.7054 4.40971 24.7927 5.19091 25.172 5.82007C25.2048 5.89567 25.248 5.98261 25.3022 6.05863C24.8902 3.31435 27.1788 2.90233 27.6017 2.04511C27.6345 1.29667 27.0162 0.797711 26.5282 0.450791C26.0616 0.168971 25.6386 0.0820312 25.248 0.0820312ZM28.6971 0.700691C28.6534 0.950171 28.6861 0.885491 28.6752 1.01527C28.6643 1.10221 28.6643 1.21057 28.6534 1.29709C28.6329 1.38519 28.6076 1.47211 28.5778 1.55749C28.5559 1.64443 28.5232 1.73095 28.4908 1.81789C28.4476 1.90483 28.4152 1.98043 28.3716 2.06737C28.3388 2.11063 28.317 2.15431 28.2846 2.19757L28.2195 2.29501C28.1653 2.37103 28.1112 2.44705 28.057 2.51215C27.9919 2.57725 27.9377 2.65327 27.8617 2.70745V2.71837C27.7966 2.77255 27.7315 2.83765 27.6559 2.89183C27.4278 3.06529 27.1674 3.19549 26.9293 3.35803C26.8528 3.41263 26.7772 3.45589 26.7121 3.52099C26.6389 3.5732 26.5699 3.6312 26.5059 3.69445C26.4303 3.75955 26.3757 3.82465 26.3106 3.90025C26.2564 3.96535 26.1913 4.04137 26.1481 4.11739C26.0935 4.19299 26.0397 4.26943 25.996 4.34503C25.9528 4.43197 25.9204 4.50799 25.8768 4.59451C25.8444 4.68145 25.8117 4.75747 25.7902 4.84399C25.7611 4.93333 25.7358 5.02385 25.7142 5.11531C25.7033 5.15857 25.7033 5.21275 25.6924 5.25643C25.6815 5.29969 25.6815 5.34295 25.671 5.38663C25.671 5.47315 25.66 5.57101 25.66 5.65753C25.66 5.72263 25.66 5.78773 25.671 5.85283C25.671 5.93977 25.6815 6.02629 25.7033 6.12415C25.7142 6.21067 25.7356 6.29761 25.7579 6.38455C25.7902 6.47107 25.8117 6.55801 25.8444 6.64495C25.8658 6.69871 25.8986 6.75331 25.92 6.79615L23.4252 5.83099C23.0086 5.71251 22.5892 5.60412 22.1673 5.50591L21.484 5.34295C20.8312 5.21284 20.1724 5.11514 19.51 5.05021C19.4881 5.05021 19.4772 5.03929 19.4554 5.03929C18.8103 4.97426 18.1624 4.94174 17.5141 4.94185C17.04 4.94354 16.5661 4.96161 16.0933 4.99603C15.4318 5.03929 14.7703 5.12623 14.1084 5.23459C13.9454 5.25643 13.7829 5.28919 13.6203 5.32153C13.2843 5.38621 12.9584 5.46223 12.6438 5.53825L12.1558 5.66845C11.9932 5.73355 11.8412 5.80957 11.6896 5.87425L11.3317 6.03721C11.3099 6.04813 11.2881 6.04813 11.2771 6.05905C11.1688 6.11323 11.0713 6.15649 10.9735 6.21067C10.9473 6.21909 10.9219 6.23006 10.8979 6.24343C10.7836 6.29664 10.6715 6.35451 10.5619 6.41689C10.4854 6.44923 10.4094 6.49249 10.3447 6.52525C10.3134 6.54561 10.2807 6.56385 10.2469 6.57985C10.1515 6.63142 10.0575 6.68562 9.96506 6.74239C9.86706 6.79671 9.78026 6.85089 9.70466 6.90493C9.62906 6.95953 9.55262 7.00237 9.48752 7.05697C9.4766 7.06747 9.4661 7.06747 9.45518 7.07839C9.38405 7.12555 9.31536 7.1763 9.24938 7.23043L9.22754 7.25185L9.06458 7.38205C9.04316 7.39297 9.02132 7.41481 8.99948 7.42573C8.9453 7.46899 8.89112 7.52317 8.83694 7.56643C8.82602 7.58827 8.80418 7.59919 8.79368 7.61011C8.72858 7.67521 8.66348 7.72939 8.59838 7.79449C8.58746 7.79449 8.58746 7.80541 8.57654 7.81591C8.51144 7.87051 8.44634 7.93519 8.38124 8.00071C8.37032 8.01121 8.37032 8.02171 8.35982 8.02171C8.30522 8.07631 8.25104 8.13091 8.19686 8.19559C8.17544 8.21743 8.14268 8.23927 8.12126 8.26069C8.06666 8.32579 8.00156 8.39089 7.93646 8.45599C7.92596 8.47783 7.90412 8.48833 7.8932 8.51059C7.80668 8.59711 7.73066 8.68363 7.64372 8.77057L7.61138 8.80291C7.4375 8.98771 7.25312 9.17167 7.05824 9.33463C6.86294 9.50809 6.65672 9.67063 6.4505 9.81175C6.23991 9.95898 6.02269 10.0965 5.7995 10.2238C5.58278 10.3433 5.35514 10.4518 5.11658 10.5493C4.88574 10.6471 4.65042 10.734 4.4114 10.8097C3.95612 10.9071 3.4895 11.0915 3.0884 11.1243C3.00146 11.1243 2.9036 11.1457 2.81708 11.1566C2.71964 11.1784 2.63228 11.2003 2.54576 11.2217L2.28536 11.3196C2.19884 11.3519 2.1119 11.3952 2.02496 11.4388C1.94936 11.493 1.86242 11.5363 1.78682 11.5905C1.7108 11.6451 1.63478 11.7097 1.56968 11.7753C1.49408 11.8294 1.41764 11.9055 1.35296 11.9701C1.28786 12.0462 1.22276 12.1113 1.16816 12.1873C1.11398 12.2738 1.04888 12.3498 1.00562 12.4368C0.948721 12.5159 0.89803 12.5993 0.853998 12.6862C0.810318 12.7837 0.767058 12.8706 0.734718 12.9681C0.701958 13.055 0.669618 13.1529 0.636858 13.2503C0.613314 13.3359 0.595218 13.4228 0.582678 13.5107C0.582678 13.5212 0.571758 13.5321 0.571758 13.543C0.549918 13.6405 0.549918 13.7707 0.539418 13.8358C0.528498 13.9118 0.517578 13.9769 0.517578 14.0529C0.517578 14.0962 0.517578 14.1504 0.528498 14.1936C0.539418 14.2696 0.549918 14.3347 0.571758 14.3998C0.593598 14.4649 0.615438 14.53 0.647778 14.5951V14.6061C0.680118 14.6712 0.723378 14.7363 0.767058 14.8014C0.810738 14.8665 0.853998 14.9316 0.908178 14.9967C0.962358 15.0508 1.02746 15.1159 1.09256 15.1701C1.15766 15.2352 1.22276 15.2894 1.29836 15.3436C1.55876 15.5712 1.62386 15.6472 1.96028 15.8207C2.01446 15.8535 2.06864 15.8753 2.13374 15.9076C2.14466 15.9076 2.15558 15.9186 2.1665 15.9186C2.1665 15.94 2.1665 15.9509 2.177 15.9727C2.18792 16.0593 2.20976 16.1462 2.2316 16.2331C2.25302 16.3306 2.28578 16.4175 2.31812 16.4935C2.35088 16.5582 2.37272 16.6237 2.40506 16.6884C2.41598 16.7103 2.42648 16.7321 2.4374 16.743C2.48108 16.8295 2.52434 16.9056 2.5676 16.9816L2.73014 17.2092C2.78474 17.2743 2.84984 17.3503 2.91494 17.415C2.97962 17.4801 3.04514 17.5347 3.12074 17.5998C3.12074 17.5998 3.13166 17.6107 3.14258 17.6107C3.20768 17.6649 3.27278 17.7191 3.33788 17.7624C3.41348 17.817 3.4895 17.8602 3.57644 17.9035C3.65204 17.9467 3.73898 17.99 3.82592 18.0228C3.89102 18.0551 3.96662 18.0769 4.04264 18.0984C4.05356 18.1093 4.06448 18.1093 4.08632 18.1202C4.12958 18.1311 4.18376 18.142 4.22702 18.153C4.19468 18.7384 4.18376 19.2916 4.2707 19.4869C4.36814 19.704 4.84526 19.0421 5.3228 18.2832C5.2577 19.0316 5.21402 19.9098 5.3228 20.1702C5.44208 20.4415 6.09266 19.5957 6.65672 18.6624C14.3469 16.8837 21.3651 22.1988 22.1022 29.7042C21.9611 28.5328 20.5188 27.8823 19.8569 28.0452C19.5318 28.8474 18.9787 29.8781 18.0887 30.5177C18.167 29.7935 18.1305 29.0614 17.9808 28.3485C17.738 29.3471 17.2788 30.2803 16.6355 31.0818C15.6052 31.1578 14.575 30.6589 14.0323 29.9104C13.9891 29.8781 13.9782 29.813 13.9458 29.7697C13.9124 29.6955 13.8834 29.6193 13.8589 29.5417C13.8275 29.4689 13.8056 29.3924 13.7938 29.314C13.7829 29.238 13.7829 29.162 13.7829 29.0755V28.9125C13.7938 28.8369 13.8156 28.7609 13.8375 28.6849C13.8572 28.6073 13.8825 28.5312 13.9131 28.4572C13.9567 28.3812 13.9891 28.3052 14.0433 28.2292C14.2281 27.7084 14.2281 27.2859 13.8916 27.0364C13.8264 26.9938 13.7574 26.9574 13.6854 26.9276C13.6417 26.9167 13.5876 26.8953 13.5443 26.8843C13.512 26.8734 13.4901 26.8625 13.4578 26.8516C13.3818 26.8302 13.3057 26.8083 13.2297 26.7974C13.1557 26.7762 13.0791 26.7653 13.0021 26.7651C12.9232 26.7521 12.8435 26.7448 12.7635 26.7432C12.7089 26.7432 12.6547 26.7541 12.6006 26.7541C12.514 26.7541 12.438 26.7651 12.362 26.7869C12.2864 26.7974 12.2104 26.8083 12.1344 26.8302C12.0588 26.852 11.9823 26.8734 11.9063 26.9058C11.8307 26.9385 11.7656 26.9713 11.6896 27.0036C11.6245 27.0364 11.5594 27.0792 11.4838 27.112C8.95622 28.7609 10.464 32.6224 12.1885 33.7396C11.5375 33.8589 10.876 34 10.6917 34.1407L10.6698 34.1625C11.1375 34.444 11.6273 34.687 12.1344 34.8891C12.7156 35.0777 13.3015 35.2514 13.8916 35.4099V35.4204C14.7916 35.6052 15.7025 35.6703 16.6246 35.6157C21.4298 35.2797 25.3673 31.6245 26.083 26.8083C26.1048 26.9062 26.1262 26.9931 26.1481 27.0906C26.1808 27.2859 26.2237 27.4917 26.2455 27.6979V27.7088C26.2674 27.8062 26.2783 27.9041 26.2892 27.9906V28.0343C26.3016 28.1278 26.3088 28.2218 26.3106 28.3161C26.3215 28.4354 26.3325 28.5547 26.3325 28.674V28.8474C26.3325 28.902 26.3434 28.9671 26.3434 29.0213C26.3434 29.0864 26.3325 29.1515 26.3325 29.2166V29.3682C26.3325 29.4438 26.3215 29.5093 26.3215 29.5854C26.3215 29.6286 26.3215 29.6719 26.3106 29.7261C26.3106 29.8021 26.2997 29.8781 26.2997 29.965C26.2888 29.9974 26.2888 30.0297 26.2888 30.0625C26.2783 30.1494 26.2674 30.225 26.2564 30.312C26.2564 30.3443 26.2564 30.3771 26.2455 30.4094C26.2346 30.5182 26.2132 30.6156 26.2023 30.7244V30.7458C26.1804 30.8433 26.1586 30.9516 26.1372 31.0495V31.0822L26.0721 31.375C26.0721 31.3859 26.0611 31.4073 26.0611 31.4182C26.0393 31.5161 26.0179 31.6135 25.9855 31.711V31.7437C25.9528 31.8521 25.92 31.9495 25.8986 32.0474C25.8877 32.0583 25.8877 32.0692 25.8877 32.0692L25.7898 32.3943C25.7466 32.5031 25.7142 32.6005 25.6705 32.7093C25.6273 32.8177 25.5949 32.926 25.5513 33.0235C25.508 33.1318 25.4647 33.2297 25.4211 33.3385H25.4101C25.3669 33.4359 25.3236 33.5443 25.2694 33.6417C25.2605 33.6678 25.2495 33.6933 25.2367 33.7177C25.2258 33.7287 25.2258 33.7396 25.2153 33.7505C24.5101 35.1714 23.4689 36.4183 22.1673 37.3948C22.078 37.4526 21.9911 37.5141 21.9069 37.5792C21.8851 37.6011 21.8523 37.6116 21.8313 37.6334C21.7534 37.6901 21.6737 37.7443 21.5923 37.7959L21.6251 37.861H21.6356L22.0913 37.7959H22.1022C22.3851 37.7506 22.6671 37.7001 22.9481 37.6443C23.0286 37.6308 23.1083 37.6125 23.1867 37.5897C23.2413 37.5792 23.2845 37.5687 23.3387 37.5574C23.4143 37.5465 23.4903 37.525 23.5663 37.5141C23.6314 37.4923 23.6965 37.4813 23.7616 37.4595C24.8365 37.1976 25.8885 36.8494 26.9074 36.4183C25.1647 38.7929 22.8467 40.6854 20.1715 41.9178C21.4189 41.8309 22.6663 41.6251 23.87 41.2777C28.2422 39.9867 31.9189 37.0471 34.1205 33.0882C33.6739 35.5996 32.6775 37.9813 31.2028 40.0627C32.2538 39.3692 33.225 38.5616 34.0987 37.6548C36.5262 35.1197 38.1198 31.9023 38.6653 28.435C39.0341 30.1486 39.1425 31.9168 38.9799 33.6631C46.8112 22.7406 39.6309 11.417 36.6262 8.43373C36.6153 8.41231 36.6044 8.40139 36.6044 8.37997C36.5935 8.39047 36.5935 8.39047 36.5935 8.40139C36.5935 8.39047 36.5935 8.39047 36.5826 8.37997C36.5826 8.51017 36.5721 8.64037 36.5611 8.77057C36.5311 9.01364 36.4949 9.25591 36.4528 9.49717C36.3982 9.73573 36.3331 9.97429 36.268 10.2129C36.1905 10.4477 36.1036 10.6793 36.0076 10.9071C35.9101 11.1238 35.8018 11.3519 35.6825 11.5686C35.5632 11.7744 35.433 11.9916 35.2919 12.1869C35.1512 12.3927 34.9992 12.5884 34.8471 12.7728C34.6846 12.9681 34.5111 13.1415 34.3377 13.3146C34.2289 13.4124 34.1314 13.4994 34.0227 13.5863C33.9361 13.6619 33.8601 13.727 33.7736 13.803C33.5783 13.9551 33.383 14.0958 33.1659 14.226C32.9601 14.3562 32.7429 14.4864 32.5262 14.5947C32.2986 14.7035 32.0705 14.8009 31.8429 14.8984C31.6117 14.9859 31.3763 15.062 31.1377 15.1264C30.8991 15.1915 30.6496 15.2457 30.4111 15.289C30.1616 15.3322 29.9121 15.3541 29.6736 15.3759C29.5001 15.3868 29.3262 15.3973 29.1528 15.3973C28.9064 15.3943 28.6603 15.3799 28.4152 15.3541C28.1672 15.3348 27.9208 15.2986 27.6777 15.2457C27.4316 15.2008 27.1888 15.1391 26.9511 15.0609H26.9402C27.1799 15.0429 27.4187 15.014 27.6559 14.9744C27.9005 14.9315 28.1429 14.8773 28.3825 14.8119C28.6213 14.7474 28.8568 14.6713 29.0881 14.5838C29.3212 14.4953 29.5492 14.3939 29.771 14.2801C29.9937 14.1716 30.211 14.0522 30.422 13.9223C30.6278 13.7812 30.834 13.6405 31.0293 13.4884C31.2248 13.3367 31.4091 13.174 31.5825 13.0004C31.7668 12.8374 31.9294 12.6531 32.0923 12.4687C32.255 12.2735 32.4068 12.0784 32.5476 11.8832C32.5695 11.8504 32.5913 11.8076 32.6127 11.7748C32.7215 11.6014 32.8299 11.4275 32.9277 11.254C33.1667 10.8223 33.3628 10.3682 33.5132 9.89827C33.5888 9.67063 33.6434 9.43207 33.6976 9.19309C33.7408 8.94361 33.7845 8.70505 33.8059 8.46649C33.8278 8.21701 33.8492 7.96753 33.8492 7.72897C33.8492 7.55551 33.8387 7.38205 33.8278 7.20817C33.8059 6.95869 33.7732 6.72013 33.7408 6.48157C33.698 6.23697 33.6438 5.99451 33.5783 5.75497C33.5027 5.52691 33.4263 5.28877 33.3397 5.06071C33.2495 4.83176 33.1482 4.60736 33.0361 4.38829C32.9197 4.17125 32.7967 3.95779 32.6673 3.74821C32.5262 3.54241 32.3851 3.34711 32.2335 3.15181C32.0705 2.96701 31.908 2.78305 31.7345 2.59867C31.6476 2.51173 31.5497 2.41387 31.4523 2.32735C30.9661 1.95033 30.463 1.59576 29.9445 1.26475C29.8744 1.2242 29.802 1.18774 29.7277 1.15555C29.3699 0.928331 29.0331 0.809051 28.6971 0.700691Z" fill="#231F20"/>
</svg>
