<svg width="43" height="42" viewBox="0 0 43 42" fill="none" xmlns="http://www.w3.org/2000/svg">
<path d="M31.651 39.3776C31.4949 39.4603 31.508 39.4865 31.6576 39.4104C31.7037 39.3916 31.746 39.3644 31.7823 39.3303C31.7823 39.3028 31.7823 39.3028 31.651 39.3776ZM31.966 39.2069C31.8912 39.2686 31.8912 39.2686 31.9805 39.2279C32.0134 39.2125 32.0436 39.1917 32.0697 39.1663C32.0697 39.1308 32.0487 39.1387 31.966 39.2069ZM32.1708 39.0836C32.096 39.1453 32.096 39.1453 32.1852 39.1046C32.2183 39.0888 32.2485 39.0675 32.2745 39.0416C32.2745 39.0088 32.2535 39.0153 32.1708 39.0836ZM32.3781 38.9615C32.3033 39.0232 32.3033 39.0232 32.3899 38.9812C32.4385 38.9549 32.4792 38.9274 32.4792 38.9195C32.4792 38.8867 32.4582 38.8933 32.3781 38.9615ZM32.6577 38.7764C32.5146 38.8723 32.4648 38.9339 32.596 38.8657C32.6839 38.8119 32.8336 38.6937 32.8073 38.6937C32.7509 38.7147 32.7036 38.7502 32.6564 38.7764H32.6577ZM20.1066 0.00964711C20.0108 0.0162097 19.7234 0.0424603 19.4714 0.0634607C13.5023 0.604222 7.91784 3.81729 4.37814 8.76682C2.422 11.4815 1.15048 14.6284 0.671752 17.9401C0.502445 19.0951 0.481445 19.4364 0.481445 21.0022C0.481445 22.5667 0.502445 22.9027 0.671752 24.0578C1.8149 31.9474 7.42698 38.5704 15.034 41.0248C16.4029 41.4619 17.8374 41.7637 19.4714 41.9488C20.1066 42.0171 22.8536 42.0171 23.4888 41.9488C26.3133 41.6338 28.698 40.9369 31.0578 39.7333C31.42 39.5495 31.4883 39.5009 31.4397 39.4603C30.2886 37.9385 29.1471 36.4094 28.0155 34.873L24.6596 30.3408L20.4558 24.1129C19.0574 22.0276 17.6448 19.952 16.2178 17.8863C16.2034 17.8863 16.185 20.6544 16.1771 24.0302C16.1627 29.9431 16.1627 30.1833 16.0879 30.3198C16.0162 30.4847 15.8876 30.6184 15.7257 30.6965C15.5957 30.7582 15.4789 30.7713 14.8581 30.7713H14.1481L13.963 30.6558C13.8471 30.5815 13.7529 30.4778 13.69 30.3553L13.6008 30.1702L13.6073 21.9393L13.6218 13.7085L13.7517 13.5444C13.8347 13.4436 13.9369 13.3601 14.0523 13.299C14.2242 13.2163 14.2925 13.2032 15.0025 13.2032C15.8359 13.2032 15.9737 13.236 16.1929 13.4762C17.8958 16.0092 19.5841 18.552 21.2577 21.1046C23.9863 25.2417 27.711 30.8868 29.5419 33.6563L32.8716 38.6951L33.0357 38.5861C34.6359 37.5227 36.086 36.2491 37.3471 34.7995C39.9924 31.7716 41.709 28.0453 42.2911 24.0669C42.4604 22.9119 42.4814 22.5694 42.4814 21.0048C42.4814 19.439 42.4604 19.1043 42.2911 17.9493C41.148 10.0597 35.5359 3.43665 27.9289 0.980917C26.5072 0.530617 25.0439 0.224137 23.561 0.0660858C23.1634 0.0253974 20.4492 -0.0231661 20.108 0.0122722L20.1066 0.00964711ZM28.6993 12.711C28.797 12.7589 28.884 12.8259 28.9555 12.9079C29.0269 12.99 29.0813 13.0854 29.1154 13.1887C29.1508 13.299 29.1574 15.5815 29.1508 20.7226L29.1364 28.1043L27.8383 26.1092L26.5324 24.1129V18.7538C26.5324 15.2796 26.5469 13.3318 26.5653 13.236C26.6295 13.0163 26.7769 12.8303 26.9761 12.7175C27.1388 12.6348 27.2018 12.6283 27.8515 12.6283C28.4591 12.6283 28.5628 12.6348 28.6993 12.711Z" fill="#231F20"/>
</svg>
