<svg width="39" height="42" viewBox="0 0 39 42" fill="none" xmlns="http://www.w3.org/2000/svg">
<path d="M17.8034 0.448244C18.8415 -0.148154 20.1941 -0.150674 21.2313 0.448244C26.4507 3.40587 31.6713 6.3593 36.8898 9.31861C37.8709 9.87343 38.5275 10.9692 38.5175 12.1032V29.899C38.525 31.0804 37.8035 32.2018 36.7679 32.744C31.5662 35.6857 26.3669 38.6307 21.1656 41.5724C20.1061 42.1801 18.7263 42.1331 17.6996 41.4758C16.1401 40.5686 14.5778 39.6664 13.0179 38.7605C12.6997 38.5702 12.3399 38.4182 12.1151 38.1087C12.314 37.8399 12.6695 37.8063 12.9589 37.6887C13.6096 37.4808 14.2076 37.1477 14.8056 36.8243C14.9567 36.7206 15.1414 36.7605 15.2863 36.8533C16.62 37.6202 17.942 38.4094 19.2799 39.1687C19.5655 39.3342 19.8545 39.1146 20.0986 38.9785C25.2032 36.0847 30.3145 33.2018 35.4183 30.3072C35.5094 30.2615 35.5846 30.1893 35.6342 30.1001C35.6838 30.0109 35.7055 29.9087 35.6963 29.807C35.7001 23.9367 35.6972 18.0651 35.6984 12.1948C35.7078 12.0804 35.6813 11.966 35.6227 11.8675C35.5641 11.769 35.4762 11.6913 35.3714 11.6454C30.1872 8.71759 25.006 5.78474 19.8231 2.85609C19.7333 2.79421 19.6269 2.76102 19.5179 2.76087C19.409 2.76072 19.3025 2.79362 19.2125 2.85525C14.0292 5.78474 8.8488 8.72011 3.66589 11.6479C3.454 11.7445 3.31205 11.9579 3.33717 12.1948C3.33773 18.0652 3.33773 23.9362 3.33717 29.8078C3.32848 29.9091 3.3508 30.0107 3.40115 30.0989C3.45151 30.1872 3.5275 30.2579 3.61899 30.3017C5.00213 31.0884 6.38695 31.8696 7.77135 32.6537C8.55065 33.0746 9.50834 33.3245 10.3672 33.0023C11.1251 32.7293 11.657 31.9536 11.6423 31.1459C11.6494 25.31 11.6385 19.4729 11.6477 13.6379C11.6285 13.3787 11.8739 13.1645 12.1251 13.1889C12.7893 13.1847 13.4547 13.1801 14.1192 13.191C14.3969 13.1847 14.5878 13.4636 14.5535 13.7244C14.5505 19.5976 14.5606 25.4709 14.5493 31.3442C14.5505 32.9091 13.9094 34.6122 12.466 35.3783C10.6875 36.3022 8.48951 36.1061 6.73284 35.2203C5.21193 34.4589 3.76053 33.5605 2.26642 32.7449C1.22833 32.2056 0.510588 31.0796 0.517707 29.8994V12.1032C0.506819 10.9457 1.18939 9.83017 2.20151 9.28375C7.40243 6.33928 12.6028 3.39411 17.8034 0.448244Z" fill="#231F20"/>
<path d="M22.3406 12.7752C24.609 12.629 27.0373 12.6887 29.0788 13.8092C30.6591 14.6685 31.5356 16.4712 31.5632 18.2318C31.5193 18.4695 31.2718 18.6006 31.0457 18.5846C30.3874 18.5834 29.7291 18.593 29.0708 18.58C28.7915 18.5905 28.6294 18.3322 28.5943 18.0848C28.4054 17.2423 27.9473 16.4078 27.1563 16.0016C25.9427 15.3918 24.5349 15.422 23.2116 15.435C22.2451 15.4867 21.2058 15.5703 20.3875 16.1406C19.7594 16.572 19.568 17.4435 19.7925 18.1453C20.004 18.6493 20.5839 18.8118 21.0584 18.9618C23.7924 19.6791 26.6894 19.6077 29.3706 20.5515C30.4808 20.9362 31.567 21.6842 31.9468 22.8497C32.4439 24.4121 32.2261 26.2802 31.1177 27.5344C30.219 28.5667 28.9096 29.1287 27.6043 29.4336C25.8669 29.8221 24.0642 29.8322 22.3004 29.6595C20.6413 29.4701 18.9152 29.0329 17.6347 27.8993C16.54 26.9459 16.0049 25.46 16.0581 24.0257C16.0706 23.7838 16.3114 23.6149 16.5426 23.6351C17.2054 23.6292 17.8679 23.6275 18.5308 23.6355C18.7954 23.6166 18.9918 23.8459 19.0052 24.0963C19.1275 24.8993 19.4282 25.7418 20.1267 26.2177C21.4734 27.0892 23.1639 27.0295 24.7061 27.0539C25.9842 26.9972 27.4184 26.98 28.4611 26.1328C29.0113 25.6498 29.1742 24.8413 29.0256 24.1462C28.8648 23.5591 28.2521 23.2852 27.7262 23.1063C25.0277 22.2504 22.0982 22.5607 19.4257 21.5926C18.3411 21.2079 17.2917 20.4809 16.8746 19.3629C16.293 17.7807 16.5597 15.8235 17.7842 14.6114C18.9784 13.406 20.702 12.9415 22.3406 12.7752Z" fill="#231F20"/>
</svg>
