<svg width="48" height="42" viewBox="0 0 48 42" fill="none" xmlns="http://www.w3.org/2000/svg">
<path d="M23.9814 16.8729C26.2331 16.8729 28.0694 18.7072 28.0694 21C28.0694 23.1836 26.2331 25.0397 23.9814 25.0397C21.7298 25.0397 19.8935 23.1836 19.8935 21C19.8935 18.7072 21.7298 16.8729 23.9814 16.8729ZM13.8601 38.469C15.2373 39.2988 18.254 38.0323 21.7298 34.7568C20.5931 33.4685 19.4782 32.071 18.4289 30.608C16.6673 30.4396 14.9159 30.1771 13.1824 29.8218C12.0675 34.4948 12.4828 37.7047 13.8601 38.469ZM15.4121 25.935L14.7782 24.8213C14.5377 25.4546 14.2973 26.0878 14.1442 26.6993C14.7345 26.8303 15.3903 26.9395 16.068 27.0486L15.4121 25.935ZM29.7089 24.2754L31.4796 21L29.7089 17.7246C29.0531 16.5672 28.3535 15.5409 27.7196 14.5146C26.5391 14.4491 25.2931 14.4491 23.9814 14.4491C22.6698 14.4491 21.4238 14.4491 20.2433 14.5146C19.6094 15.5409 18.9098 16.5672 18.254 17.7246L16.4833 21L18.254 24.2754C18.9098 25.4328 19.6094 26.4591 20.2433 27.4854C21.4238 27.5509 22.6698 27.5509 23.9814 27.5509C25.2931 27.5509 26.5391 27.5509 27.7196 27.4854C28.3535 26.4591 29.0531 25.4328 29.7089 24.2754ZM23.9814 9.60147C23.5661 10.0819 23.1289 10.5841 22.6917 11.1737H25.2712C24.834 10.5841 24.3968 10.0819 23.9814 9.60147ZM23.9814 32.3985C24.3968 31.9181 24.834 31.4159 25.2712 30.8263H22.6917C23.1289 31.4159 23.5661 31.9181 23.9814 32.3985ZM34.081 3.53099C32.7256 2.70122 29.7089 3.96772 26.2331 7.24316C27.3698 8.5315 28.4847 9.92902 29.534 11.392C31.3266 11.5667 33.0973 11.8288 34.7805 12.1782C35.8954 7.50519 35.4801 4.29526 34.081 3.53099ZM32.5507 16.065L33.1847 17.1787C33.4252 16.5454 33.6656 15.9122 33.8187 15.3007C33.2284 15.1697 32.5726 15.0605 31.8949 14.9514L32.5507 16.065ZM35.7205 0.670445C38.934 2.50469 39.2838 7.3305 37.9284 12.9643C43.481 14.602 47.4814 17.3097 47.4814 21C47.4814 24.6903 43.481 27.398 37.9284 29.0357C39.2838 34.6695 38.934 39.4953 35.7205 41.3296C32.5289 43.1638 28.1787 41.0675 23.9814 37.0715C19.7842 41.0675 15.434 43.1638 12.2205 41.3296C9.02889 39.4953 8.67912 34.6695 10.0345 29.0357C4.48191 27.398 0.481445 24.6903 0.481445 21C0.481445 17.3097 4.48191 14.602 10.0345 12.9643C8.67912 7.3305 9.02889 2.50469 12.2205 0.670445C15.434 -1.1638 19.7842 0.93248 23.9814 4.92851C28.1787 0.93248 32.5289 -1.1638 35.7205 0.670445ZM35.0866 21C35.8298 22.6377 36.4856 24.2754 37.0321 25.935C41.6228 24.5593 44.2024 22.594 44.2024 21C44.2024 19.406 41.6228 17.4407 37.0321 16.065C36.4856 17.7246 35.8298 19.3623 35.0866 21ZM12.8763 21C12.1331 19.3623 11.4773 17.7246 10.9307 16.065C6.34005 17.4407 3.76052 19.406 3.76052 21C3.76052 22.594 6.34005 24.5593 10.9307 25.935C11.4773 24.2754 12.1331 22.6377 12.8763 21ZM32.5507 25.935L31.8949 27.0486C32.5726 26.9395 33.2284 26.8303 33.8187 26.6993C33.6656 26.0878 33.4252 25.4546 33.1847 24.8213L32.5507 25.935ZM26.2331 34.7568C29.7089 38.0323 32.7256 39.2988 34.081 38.469C35.4801 37.7047 35.8954 34.4948 34.7805 29.8218C33.0973 30.1712 31.3266 30.4333 29.534 30.608C28.4847 32.071 27.3698 33.4685 26.2331 34.7568ZM15.4121 16.065L16.068 14.9514C15.3903 15.0605 14.7345 15.1697 14.1442 15.3007C14.2973 15.9122 14.5377 16.5454 14.7782 17.1787L15.4121 16.065ZM21.7298 7.24316C18.254 3.96772 15.2373 2.70122 13.8601 3.53099C12.4828 4.29526 12.0675 7.50519 13.1824 12.1782C14.9159 11.8229 16.6673 11.5604 18.4289 11.392C19.4782 9.92902 20.5931 8.5315 21.7298 7.24316Z" fill="#231F20"/>
</svg>
