<svg width="43" height="42" viewBox="0 0 43 42" fill="none" xmlns="http://www.w3.org/2000/svg">
<path d="M0.481445 0H42.4814V42H0.481445V0Z" fill="#231F20"/>
<path d="M20.6482 15.553H22.6629V19.0315H17.2155V34.5055L17.0714 34.545C16.8745 34.5975 14.2826 34.5975 13.7245 34.5383L13.2784 34.4992V19.031H7.83145V15.5534L9.55764 15.5333C10.5026 15.5207 12.9302 15.5207 14.9517 15.5333C16.9732 15.5467 19.5322 15.553 20.6482 15.553ZM36.0244 32.865C35.2234 33.7117 34.3637 34.1838 32.9332 34.5715C32.3095 34.742 32.2045 34.7483 30.8004 34.742C29.3959 34.7353 29.2842 34.7353 28.6017 34.558C26.8364 34.1053 25.4122 33.2195 24.4412 31.9658C24.1657 31.6117 23.7129 30.8767 23.7129 30.7847C23.7129 30.7583 23.7784 30.6995 23.8637 30.66C23.9489 30.6205 24.1262 30.5088 24.2707 30.424C24.4147 30.3383 24.6772 30.1808 24.8545 30.0892C25.0317 29.9968 25.5433 29.6953 25.9897 29.426C26.4362 29.1572 26.8432 28.9405 26.8889 28.9405C26.9351 28.9405 27.0204 29.0325 27.0859 29.1442C27.4795 29.807 28.3984 30.6533 29.0482 30.9418C29.4484 31.1128 30.3342 31.303 30.7609 31.303C31.1545 31.303 31.8764 31.1325 32.2637 30.9553C32.677 30.765 32.887 30.5747 33.1364 30.1942C33.307 29.925 33.3267 29.8528 33.3204 29.3408C33.3204 28.8683 33.2939 28.7372 33.1629 28.5205C32.7954 27.917 32.2964 27.602 30.2754 26.7095C28.188 25.7842 27.2497 25.2328 26.4887 24.491C25.9242 23.94 25.8125 23.7896 25.4584 23.1C24.9989 22.2138 24.9397 21.9253 24.9334 20.6065C24.9267 19.6808 24.9464 19.3792 25.0447 19.0642C25.1829 18.5917 25.6289 17.6795 25.8322 17.4497C26.2522 16.9575 26.4034 16.8067 26.6987 16.5635C27.5912 15.8285 28.9826 15.343 30.3149 15.2972C30.4657 15.2972 30.9642 15.3233 31.4304 15.356C32.7689 15.4678 33.6812 15.7958 34.5607 16.4984C35.2234 17.0234 36.2272 18.257 36.1289 18.4208C36.0634 18.5195 33.4451 20.265 33.2742 20.3175C33.1692 20.3503 33.097 20.3108 32.9529 20.1403C32.0604 19.0705 31.6992 18.8408 30.8332 18.7883C30.2162 18.7492 29.8882 18.821 29.4745 19.097C29.0419 19.3855 28.8319 19.8253 28.8319 20.4355C28.8382 21.328 29.1792 21.748 30.4392 22.3717C31.2532 22.772 31.9487 23.1 32.0012 23.1C32.0801 23.1 33.7664 23.94 34.2062 24.2025C36.2537 25.4037 37.0874 26.6372 37.3037 28.7637C37.4612 30.3647 37.0088 31.828 36.0244 32.865Z" fill="white"/>
</svg>
